# xmcd
# 
# Track frame offsets:
#	150
#	16240
#	32535
#	47432
#	60465
#	73335
#	89072
#	104007
#	118845
#	137852
#	151582
#	166622
#
# Disc length: 2394 seconds
#
# Revision: 1
# Processed by: cddbd v1.4PL0 Copyright (c) Steve Scherf et al.
# Submitted via: Audio-CD-Archiv 2.10.441
#
DISCID=9a09580c
DTITLE=Greyhounds - Nimm mich mit...
DYEAR=1900
DGENRE=country
TTITLE0=Denn für die Liebe brauch ich Dich
TTITLE1=Honeymoon Hotel
TTITLE2=Tausend Stürme
TTITLE3=Lern Deinem Kind ( Teach Your Children )
TTITLE4=Es wird dunkel in der Stadt
TTITLE5=Mein alter Freund
TTITLE6=Nimm mich mit
TTITLE7=Ich wär so gern mit Dir allein
TTITLE8=Du brauchst etwas Liebe
TTITLE9=Vagabund der Liebe
TTITLE10=Verliebt in die eigene Frau
TTITLE11=Wir fangen immer wieder und nochmal von vorne an
EXTD=
EXTT0=
EXTT1=
EXTT2=
EXTT3=
EXTT4=
EXTT5=
EXTT6=
EXTT7=
EXTT8=
EXTT9=
EXTT10=
EXTT11=
PLAYORDER=
